<svg version="1.1" xmlns="http://www.w3.org/2000/svg" viewBox="0 0 1330 672" width="2660" height="1344"><!-- svg-source:excalidraw --><metadata/><defs><style class="style-fonts">
      </style></defs><rect x="0" y="0" width="1330" height="672" fill="#ffffff"/><g transform="translate(10 10) rotate(0 285.5078125 20)"><text x="0" y="28.640625" font-family="Helvetica, Segoe UI Emoji" font-size="32px" fill="#0f172a" text-anchor="start" style="white-space: pre;" direction="ltr" dominant-baseline="alphabetic">How is a short link created and opened?</text></g><g transform="translate(10 67.375) rotate(0 226.32080078125 10.625)"><text x="0" y="15.21533203125" font-family="Helvetica, Segoe UI Emoji" font-size="17px" fill="#64748b" text-anchor="start" style="white-space: pre;" direction="ltr" dominant-baseline="alphabetic">The create path saves the link. The open path redirects to it.</text></g><g stroke-linecap="round" transform="translate(10 157) rotate(0 80 29)"><path d="M14.5 0 C54.39 0, 94.27 0, 145.5 0 C155.17 0, 160 4.83, 160 14.5 C160 24.67, 160 34.84, 160 43.5 C160 53.17, 155.17 58, 145.5 58 C93.84 58, 42.18 58, 14.5 58 C4.83 58, 0 53.17, 0 43.5 C0 33.78, 0 24.07, 0 14.5 C0 4.83, 4.83 0, 14.5 0" stroke="none" stroke-width="0" fill="#2563eb"/><path d="M14.5 0 C44.57 0, 74.64 0, 145.5 0 M14.5 0 C58.16 0, 101.81 0, 145.5 0 M145.5 0 C155.17 0, 160 4.83, 160 14.5 M145.5 0 C155.17 0, 160 4.83, 160 14.5 M160 14.5 C160 22.12, 160 29.73, 160 43.5 M160 14.5 C160 25.97, 160 37.43, 160 43.5 M160 43.5 C160 53.17, 155.17 58, 145.5 58 M160 43.5 C160 53.17, 155.17 58, 145.5 58 M145.5 58 C103.82 58, 62.14 58, 14.5 58 M145.5 58 C97.28 58, 49.06 58, 14.5 58 M14.5 58 C4.83 58, 0 53.17, 0 43.5 M14.5 58 C4.83 58, 0 53.17, 0 43.5 M0 43.5 C0 34.6, 0 25.69, 0 14.5 M0 43.5 C0 33.66, 0 23.82, 0 14.5 M0 14.5 C0 4.83, 4.83 0, 14.5 0 M0 14.5 C0 4.83, 4.83 0, 14.5 0" stroke="#ffffff" stroke-width="2" fill="none"/></g><g transform="translate(39.47607421875 174.75) rotate(0 50.52392578125 11.25)"><text x="50.52392578125" y="16.1103515625" font-family="Helvetica, Segoe UI Emoji" font-size="18px" fill="#ffffff" text-anchor="middle" style="white-space: pre;" direction="ltr" dominant-baseline="alphabetic">Create a link</text></g><g stroke-linecap="round" transform="translate(210 132) rotate(0 95 55)"><path d="M27.5 0 C63 0, 98.49 0, 162.5 0 C180.83 0, 190 9.17, 190 27.5 C190 38.59, 190 49.68, 190 82.5 C190 100.83, 180.83 110, 162.5 110 C123.09 110, 83.68 110, 27.5 110 C9.17 110, 0 100.83, 0 82.5 C0 71.05, 0 59.6, 0 27.5 C0 9.17, 9.17 0, 27.5 0" stroke="none" stroke-width="0" fill="#f8fafc"/><path d="M27.5 0 C78.85 0, 130.21 0, 162.5 0 M27.5 0 C66.1 0, 104.69 0, 162.5 0 M162.5 0 C180.83 0, 190 9.17, 190 27.5 M162.5 0 C180.83 0, 190 9.17, 190 27.5 M190 27.5 C190 38.68, 190 49.86, 190 82.5 M190 27.5 C190 43.18, 190 58.86, 190 82.5 M190 82.5 C190 100.83, 180.83 110, 162.5 110 M190 82.5 C190 100.83, 180.83 110, 162.5 110 M162.5 110 C112.85 110, 63.21 110, 27.5 110 M162.5 110 C115.48 110, 68.47 110, 27.5 110 M27.5 110 C9.17 110, 0 100.83, 0 82.5 M27.5 110 C9.17 110, 0 100.83, 0 82.5 M0 82.5 C0 63.88, 0 45.25, 0 27.5 M0 82.5 C0 62.7, 0 42.9, 0 27.5 M0 27.5 C0 9.17, 9.17 0, 27.5 0 M0 27.5 C0 9.17, 9.17 0, 27.5 0" stroke="#334155" stroke-width="2" fill="none"/></g><g transform="translate(228.24609375 147) rotate(0 76.75390625 40)"><text x="76.75390625" y="14.3203125" font-family="Helvetica, Segoe UI Emoji" font-size="16px" fill="#334155" text-anchor="middle" style="white-space: pre;" direction="ltr" dominant-baseline="alphabetic">POST /shorten</text><text x="76.75390625" y="34.3203125" font-family="Helvetica, Segoe UI Emoji" font-size="16px" fill="#334155" text-anchor="middle" style="white-space: pre;" direction="ltr" dominant-baseline="alphabetic"/><text x="76.75390625" y="54.3203125" font-family="Helvetica, Segoe UI Emoji" font-size="16px" fill="#334155" text-anchor="middle" style="white-space: pre;" direction="ltr" dominant-baseline="alphabetic">Send an absolute</text><text x="76.75390625" y="74.3203125" font-family="Helvetica, Segoe UI Emoji" font-size="16px" fill="#334155" text-anchor="middle" style="white-space: pre;" direction="ltr" dominant-baseline="alphabetic">HTTP or HTTPS URL</text></g><g stroke-linecap="round" transform="translate(440 132) rotate(0 95 55)"><path d="M27.5 0 C71.78 0, 116.05 0, 162.5 0 C180.83 0, 190 9.17, 190 27.5 C190 39.99, 190 52.49, 190 82.5 C190 100.83, 180.83 110, 162.5 110 C133.42 110, 104.33 110, 27.5 110 C9.17 110, 0 100.83, 0 82.5 C0 68.31, 0 54.12, 0 27.5 C0 9.17, 9.17 0, 27.5 0" stroke="none" stroke-width="0" fill="#f8fafc"/><path d="M27.5 0 C70.43 0, 113.36 0, 162.5 0 M27.5 0 C62.31 0, 97.12 0, 162.5 0 M162.5 0 C180.83 0, 190 9.17, 190 27.5 M162.5 0 C180.83 0, 190 9.17, 190 27.5 M190 27.5 C190 48.9, 190 70.31, 190 82.5 M190 27.5 C190 42.29, 190 57.09, 190 82.5 M190 82.5 C190 100.83, 180.83 110, 162.5 110 M190 82.5 C190 100.83, 180.83 110, 162.5 110 M162.5 110 C108.87 110, 55.23 110, 27.5 110 M162.5 110 C118.57 110, 74.64 110, 27.5 110 M27.5 110 C9.17 110, 0 100.83, 0 82.5 M27.5 110 C9.17 110, 0 100.83, 0 82.5 M0 82.5 C0 66.99, 0 51.48, 0 27.5 M0 82.5 C0 60.88, 0 39.26, 0 27.5 M0 27.5 C0 9.17, 9.17 0, 27.5 0 M0 27.5 C0 9.17, 9.17 0, 27.5 0" stroke="#334155" stroke-width="2" fill="none"/></g><g transform="translate(466.08203125 147) rotate(0 68.91796875 40)"><text x="68.91796875" y="14.3203125" font-family="Helvetica, Segoe UI Emoji" font-size="16px" fill="#334155" text-anchor="middle" style="white-space: pre;" direction="ltr" dominant-baseline="alphabetic">Validate the URL</text><text x="68.91796875" y="34.3203125" font-family="Helvetica, Segoe UI Emoji" font-size="16px" fill="#334155" text-anchor="middle" style="white-space: pre;" direction="ltr" dominant-baseline="alphabetic"/><text x="68.91796875" y="54.3203125" font-family="Helvetica, Segoe UI Emoji" font-size="16px" fill="#334155" text-anchor="middle" style="white-space: pre;" direction="ltr" dominant-baseline="alphabetic">Make a 7-character</text><text x="68.91796875" y="74.3203125" font-family="Helvetica, Segoe UI Emoji" font-size="16px" fill="#334155" text-anchor="middle" style="white-space: pre;" direction="ltr" dominant-baseline="alphabetic">Base62 code</text></g><g stroke-linecap="round" transform="translate(670 132) rotate(0 95 55)"><path d="M27.5 0 C72.23 0, 116.97 0, 162.5 0 C180.83 0, 190 9.17, 190 27.5 C190 40.71, 190 53.92, 190 82.5 C190 100.83, 180.83 110, 162.5 110 C108.67 110, 54.84 110, 27.5 110 C9.17 110, 0 100.83, 0 82.5 C0 65.16, 0 47.82, 0 27.5 C0 9.17, 9.17 0, 27.5 0" stroke="none" stroke-width="0" fill="#ccfbf1"/><path d="M27.5 0 C55.32 0, 83.14 0, 162.5 0 M27.5 0 C63.02 0, 98.54 0, 162.5 0 M162.5 0 C180.83 0, 190 9.17, 190 27.5 M162.5 0 C180.83 0, 190 9.17, 190 27.5 M190 27.5 C190 39.97, 190 52.44, 190 82.5 M190 27.5 C190 39.12, 190 50.73, 190 82.5 M190 82.5 C190 100.83, 180.83 110, 162.5 110 M190 82.5 C190 100.83, 180.83 110, 162.5 110 M162.5 110 C126.89 110, 91.28 110, 27.5 110 M162.5 110 C115.86 110, 69.23 110, 27.5 110 M27.5 110 C9.17 110, 0 100.83, 0 82.5 M27.5 110 C9.17 110, 0 100.83, 0 82.5 M0 82.5 C0 64.03, 0 45.55, 0 27.5 M0 82.5 C0 62, 0 41.49, 0 27.5 M0 27.5 C0 9.17, 9.17 0, 27.5 0 M0 27.5 C0 9.17, 9.17 0, 27.5 0" stroke="#0f766e" stroke-width="2" fill="none"/></g><g transform="translate(701.421875 147) rotate(0 63.578125 40)"><text x="63.578125" y="14.3203125" font-family="Helvetica, Segoe UI Emoji" font-size="16px" fill="#0f766e" text-anchor="middle" style="white-space: pre;" direction="ltr" dominant-baseline="alphabetic">Cassandra claims</text><text x="63.578125" y="34.3203125" font-family="Helvetica, Segoe UI Emoji" font-size="16px" fill="#0f766e" text-anchor="middle" style="white-space: pre;" direction="ltr" dominant-baseline="alphabetic">the code</text><text x="63.578125" y="54.3203125" font-family="Helvetica, Segoe UI Emoji" font-size="16px" fill="#0f766e" text-anchor="middle" style="white-space: pre;" direction="ltr" dominant-baseline="alphabetic"/><text x="63.578125" y="74.3203125" font-family="Helvetica, Segoe UI Emoji" font-size="16px" fill="#0f766e" text-anchor="middle" style="white-space: pre;" direction="ltr" dominant-baseline="alphabetic">Retry a collision</text></g><g stroke-linecap="round" transform="translate(900 132) rotate(0 95 55)"><path d="M27.5 0 C67.65 0, 107.81 0, 162.5 0 C180.83 0, 190 9.17, 190 27.5 C190 39.85, 190 52.19, 190 82.5 C190 100.83, 180.83 110, 162.5 110 C132.9 110, 103.29 110, 27.5 110 C9.17 110, 0 100.83, 0 82.5 C0 61.89, 0 41.27, 0 27.5 C0 9.17, 9.17 0, 27.5 0" stroke="none" stroke-width="0" fill="#ffe4e6"/><path d="M27.5 0 C80.95 0, 134.41 0, 162.5 0 M27.5 0 C72.53 0, 117.56 0, 162.5 0 M162.5 0 C180.83 0, 190 9.17, 190 27.5 M162.5 0 C180.83 0, 190 9.17, 190 27.5 M190 27.5 C190 46.65, 190 65.79, 190 82.5 M190 27.5 C190 48.47, 190 69.43, 190 82.5 M190 82.5 C190 100.83, 180.83 110, 162.5 110 M190 82.5 C190 100.83, 180.83 110, 162.5 110 M162.5 110 C111.53 110, 60.56 110, 27.5 110 M162.5 110 C135 110, 107.5 110, 27.5 110 M27.5 110 C9.17 110, 0 100.83, 0 82.5 M27.5 110 C9.17 110, 0 100.83, 0 82.5 M0 82.5 C0 62.84, 0 43.19, 0 27.5 M0 82.5 C0 70.72, 0 58.94, 0 27.5 M0 27.5 C0 9.17, 9.17 0, 27.5 0 M0 27.5 C0 9.17, 9.17 0, 27.5 0" stroke="#be123c" stroke-width="2" fill="none"/></g><g transform="translate(925.1796875 147) rotate(0 69.8203125 40)"><text x="69.8203125" y="14.3203125" font-family="Helvetica, Segoe UI Emoji" font-size="16px" fill="#be123c" text-anchor="middle" style="white-space: pre;" direction="ltr" dominant-baseline="alphabetic">Redis caches</text><text x="69.8203125" y="34.3203125" font-family="Helvetica, Segoe UI Emoji" font-size="16px" fill="#be123c" text-anchor="middle" style="white-space: pre;" direction="ltr" dominant-baseline="alphabetic">the new link</text><text x="69.8203125" y="54.3203125" font-family="Helvetica, Segoe UI Emoji" font-size="16px" fill="#be123c" text-anchor="middle" style="white-space: pre;" direction="ltr" dominant-baseline="alphabetic"/><text x="69.8203125" y="74.3203125" font-family="Helvetica, Segoe UI Emoji" font-size="16px" fill="#be123c" text-anchor="middle" style="white-space: pre;" direction="ltr" dominant-baseline="alphabetic">Keep it for 24 hours</text></g><g stroke-linecap="round" transform="translate(1130 132) rotate(0 95 55)"><path d="M27.5 0 C56.19 0, 84.88 0, 162.5 0 C180.83 0, 190 9.17, 190 27.5 C190 47.55, 190 67.6, 190 82.5 C190 100.83, 180.83 110, 162.5 110 C132.97 110, 103.44 110, 27.5 110 C9.17 110, 0 100.83, 0 82.5 C0 66.9, 0 51.29, 0 27.5 C0 9.17, 9.17 0, 27.5 0" stroke="none" stroke-width="0" fill="#dcfce7"/><path d="M27.5 0 C59.33 0, 91.16 0, 162.5 0 M27.5 0 C64.98 0, 102.46 0, 162.5 0 M162.5 0 C180.83 0, 190 9.17, 190 27.5 M162.5 0 C180.83 0, 190 9.17, 190 27.5 M190 27.5 C190 39.31, 190 51.13, 190 82.5 M190 27.5 C190 39.49, 190 51.48, 190 82.5 M190 82.5 C190 100.83, 180.83 110, 162.5 110 M190 82.5 C190 100.83, 180.83 110, 162.5 110 M162.5 110 C125.07 110, 87.65 110, 27.5 110 M162.5 110 C117.25 110, 72 110, 27.5 110 M27.5 110 C9.17 110, 0 100.83, 0 82.5 M27.5 110 C9.17 110, 0 100.83, 0 82.5 M0 82.5 C0 65.25, 0 47.99, 0 27.5 M0 82.5 C0 70.05, 0 57.61, 0 27.5 M0 27.5 C0 9.17, 9.17 0, 27.5 0 M0 27.5 C0 9.17, 9.17 0, 27.5 0" stroke="#15803d" stroke-width="2" fill="none"/></g><g transform="translate(1180.96875 147) rotate(0 44.03125 40)"><text x="44.03125" y="14.3203125" font-family="Helvetica, Segoe UI Emoji" font-size="16px" fill="#15803d" text-anchor="middle" style="white-space: pre;" direction="ltr" dominant-baseline="alphabetic">201 Created</text><text x="44.03125" y="34.3203125" font-family="Helvetica, Segoe UI Emoji" font-size="16px" fill="#15803d" text-anchor="middle" style="white-space: pre;" direction="ltr" dominant-baseline="alphabetic"/><text x="44.03125" y="54.3203125" font-family="Helvetica, Segoe UI Emoji" font-size="16px" fill="#15803d" text-anchor="middle" style="white-space: pre;" direction="ltr" dominant-baseline="alphabetic">Return the</text><text x="44.03125" y="74.3203125" font-family="Helvetica, Segoe UI Emoji" font-size="16px" fill="#15803d" text-anchor="middle" style="white-space: pre;" direction="ltr" dominant-baseline="alphabetic">short link</text></g><g stroke-linecap="round"><g transform="translate(178.49991346814275 186.90930192310765) rotate(0 11.50008653185725 -0.4441856440378871)"><path d="M0 0 C6.81 -0.26, 13.63 -0.53, 23 -0.89 M0 0 C7.72 -0.3, 15.45 -0.6, 23 -0.89" stroke="#64748b" stroke-width="2" fill="none"/></g><g transform="translate(178.49991346814275 186.90930192310765) rotate(0 11.50008653185725 -0.4441856440378871)"><path d="M12.35 3.46 C15.5 2.17, 18.66 0.88, 23 -0.89 M12.35 3.46 C15.92 2, 19.5 0.54, 23 -0.89" stroke="#64748b" stroke-width="2" fill="none"/></g><g transform="translate(178.49991346814275 186.90930192310765) rotate(0 11.50008653185725 -0.4441856440378871)"><path d="M12.04 -4.4 C15.29 -3.36, 18.53 -2.32, 23 -0.89 M12.04 -4.4 C15.72 -3.22, 19.4 -2.04, 23 -0.89" stroke="#64748b" stroke-width="2" fill="none"/></g></g><mask/><g stroke-linecap="round"><g transform="translate(408.5 187) rotate(0 11.5 0)"><path d="M0 0 C4.94 0, 9.87 0, 23 0 M0 0 C8.8 0, 17.6 0, 23 0" stroke="#64748b" stroke-width="2" fill="none"/></g><g transform="translate(408.5 187) rotate(0 11.5 0)"><path d="M12.19 3.93 C14.51 3.09, 16.83 2.24, 23 0 M12.19 3.93 C16.33 2.43, 20.46 0.92, 23 0" stroke="#64748b" stroke-width="2" fill="none"/></g><g transform="translate(408.5 187) rotate(0 11.5 0)"><path d="M12.19 -3.93 C14.51 -3.09, 16.83 -2.24, 23 0 M12.19 -3.93 C16.33 -2.43, 20.46 -0.92, 23 0" stroke="#64748b" stroke-width="2" fill="none"/></g></g><mask/><g stroke-linecap="round"><g transform="translate(638.5 187) rotate(0 11.5 0)"><path d="M0 0 C6.76 0, 13.52 0, 23 0 M0 0 C9.05 0, 18.1 0, 23 0" stroke="#64748b" stroke-width="2" fill="none"/></g><g transform="translate(638.5 187) rotate(0 11.5 0)"><path d="M12.19 3.93 C15.37 2.78, 18.55 1.62, 23 0 M12.19 3.93 C16.45 2.39, 20.7 0.84, 23 0" stroke="#64748b" stroke-width="2" fill="none"/></g><g transform="translate(638.5 187) rotate(0 11.5 0)"><path d="M12.19 -3.93 C15.37 -2.78, 18.55 -1.62, 23 0 M12.19 -3.93 C16.45 -2.39, 20.7 -0.84, 23 0" stroke="#64748b" stroke-width="2" fill="none"/></g></g><mask/><g stroke-linecap="round"><g transform="translate(868.5 187) rotate(0 11.5 0)"><path d="M0 0 C6.5 0, 12.99 0, 23 0 M0 0 C8.96 0, 17.92 0, 23 0" stroke="#64748b" stroke-width="2" fill="none"/></g><g transform="translate(868.5 187) rotate(0 11.5 0)"><path d="M12.19 3.93 C15.25 2.82, 18.3 1.71, 23 0 M12.19 3.93 C16.4 2.4, 20.61 0.87, 23 0" stroke="#64748b" stroke-width="2" fill="none"/></g><g transform="translate(868.5 187) rotate(0 11.5 0)"><path d="M12.19 -3.93 C15.25 -2.82, 18.3 -1.71, 23 0 M12.19 -3.93 C16.4 -2.4, 20.61 -0.87, 23 0" stroke="#64748b" stroke-width="2" fill="none"/></g></g><mask/><g stroke-linecap="round"><g transform="translate(1098.5 187) rotate(0 11.5 0)"><path d="M0 0 C6.39 0, 12.78 0, 23 0 M0 0 C6.95 0, 13.9 0, 23 0" stroke="#64748b" stroke-width="2" fill="none"/></g><g transform="translate(1098.5 187) rotate(0 11.5 0)"><path d="M12.19 3.93 C15.2 2.84, 18.2 1.75, 23 0 M12.19 3.93 C15.46 2.75, 18.72 1.56, 23 0" stroke="#64748b" stroke-width="2" fill="none"/></g><g transform="translate(1098.5 187) rotate(0 11.5 0)"><path d="M12.19 -3.93 C15.2 -2.84, 18.2 -1.75, 23 0 M12.19 -3.93 C15.46 -2.75, 18.72 -1.56, 23 0" stroke="#64748b" stroke-width="2" fill="none"/></g></g><mask/><g stroke-linecap="round"><g transform="translate(10 307) rotate(0 655 0)"><path d="M0 0 C407.41 0, 814.81 0, 1310 0 M0 0 C416.39 0, 832.78 0, 1310 0" stroke="#e2e8f0" stroke-width="2" fill="none"/></g></g><mask/><g stroke-linecap="round" transform="translate(10 417) rotate(0 80 29)"><path d="M14.5 0 C56.2 0, 97.9 0, 145.5 0 C155.17 0, 160 4.83, 160 14.5 C160 21.91, 160 29.33, 160 43.5 C160 53.17, 155.17 58, 145.5 58 C108.56 58, 71.63 58, 14.5 58 C4.83 58, 0 53.17, 0 43.5 C0 34.78, 0 26.06, 0 14.5 C0 4.83, 4.83 0, 14.5 0" stroke="none" stroke-width="0" fill="#7c3aed"/><path d="M14.5 0 C54.16 0, 93.81 0, 145.5 0 M14.5 0 C64.63 0, 114.77 0, 145.5 0 M145.5 0 C155.17 0, 160 4.83, 160 14.5 M145.5 0 C155.17 0, 160 4.83, 160 14.5 M160 14.5 C160 22.75, 160 30.99, 160 43.5 M160 14.5 C160 22.81, 160 31.13, 160 43.5 M160 43.5 C160 53.17, 155.17 58, 145.5 58 M160 43.5 C160 53.17, 155.17 58, 145.5 58 M145.5 58 C114.69 58, 83.88 58, 14.5 58 M145.5 58 C93.45 58, 41.4 58, 14.5 58 M14.5 58 C4.83 58, 0 53.17, 0 43.5 M14.5 58 C4.83 58, 0 53.17, 0 43.5 M0 43.5 C0 35.98, 0 28.46, 0 14.5 M0 43.5 C0 32.34, 0 21.18, 0 14.5 M0 14.5 C0 4.83, 4.83 0, 14.5 0 M0 14.5 C0 4.83, 4.83 0, 14.5 0" stroke="#ffffff" stroke-width="2" fill="none"/></g><g transform="translate(44.47265625 434.75) rotate(0 45.52734375 11.25)"><text x="45.52734375" y="16.1103515625" font-family="Helvetica, Segoe UI Emoji" font-size="18px" fill="#ffffff" text-anchor="middle" style="white-space: pre;" direction="ltr" dominant-baseline="alphabetic">Open a link</text></g><g stroke-linecap="round" transform="translate(210 392) rotate(0 95 55)"><path d="M27.5 0 C73.84 0, 120.18 0, 162.5 0 C180.83 0, 190 9.17, 190 27.5 C190 43.35, 190 59.2, 190 82.5 C190 100.83, 180.83 110, 162.5 110 C110.58 110, 58.67 110, 27.5 110 C9.17 110, 0 100.83, 0 82.5 C0 64.96, 0 47.42, 0 27.5 C0 9.17, 9.17 0, 27.5 0" stroke="none" stroke-width="0" fill="#f8fafc"/><path d="M27.5 0 C76.11 0, 124.72 0, 162.5 0 M27.5 0 C55.89 0, 84.27 0, 162.5 0 M162.5 0 C180.83 0, 190 9.17, 190 27.5 M162.5 0 C180.83 0, 190 9.17, 190 27.5 M190 27.5 C190 41.41, 190 55.32, 190 82.5 M190 27.5 C190 43.75, 190 60, 190 82.5 M190 82.5 C190 100.83, 180.83 110, 162.5 110 M190 82.5 C190 100.83, 180.83 110, 162.5 110 M162.5 110 C119.87 110, 77.24 110, 27.5 110 M162.5 110 C126.51 110, 90.52 110, 27.5 110 M27.5 110 C9.17 110, 0 100.83, 0 82.5 M27.5 110 C9.17 110, 0 100.83, 0 82.5 M0 82.5 C0 62.18, 0 41.86, 0 27.5 M0 82.5 C0 64.93, 0 47.35, 0 27.5 M0 27.5 C0 9.17, 9.17 0, 27.5 0 M0 27.5 C0 9.17, 9.17 0, 27.5 0" stroke="#334155" stroke-width="2" fill="none"/></g><g transform="translate(261.55859375 407) rotate(0 43.44140625 40)"><text x="43.44140625" y="14.3203125" font-family="Helvetica, Segoe UI Emoji" font-size="16px" fill="#334155" text-anchor="middle" style="white-space: pre;" direction="ltr" dominant-baseline="alphabetic">GET /{code}</text><text x="43.44140625" y="34.3203125" font-family="Helvetica, Segoe UI Emoji" font-size="16px" fill="#334155" text-anchor="middle" style="white-space: pre;" direction="ltr" dominant-baseline="alphabetic"/><text x="43.44140625" y="54.3203125" font-family="Helvetica, Segoe UI Emoji" font-size="16px" fill="#334155" text-anchor="middle" style="white-space: pre;" direction="ltr" dominant-baseline="alphabetic">Send the</text><text x="43.44140625" y="74.3203125" font-family="Helvetica, Segoe UI Emoji" font-size="16px" fill="#334155" text-anchor="middle" style="white-space: pre;" direction="ltr" dominant-baseline="alphabetic">short code</text></g><g stroke-linecap="round" transform="translate(440 392) rotate(0 95 55)"><path d="M27.5 0 C71.55 0, 115.61 0, 162.5 0 C180.83 0, 190 9.17, 190 27.5 C190 47.75, 190 68.01, 190 82.5 C190 100.83, 180.83 110, 162.5 110 C131.84 110, 101.18 110, 27.5 110 C9.17 110, 0 100.83, 0 82.5 C0 69.66, 0 56.82, 0 27.5 C0 9.17, 9.17 0, 27.5 0" stroke="none" stroke-width="0" fill="#ffe4e6"/><path d="M27.5 0 C70.39 0, 113.28 0, 162.5 0 M27.5 0 C80.07 0, 132.63 0, 162.5 0 M162.5 0 C180.83 0, 190 9.17, 190 27.5 M162.5 0 C180.83 0, 190 9.17, 190 27.5 M190 27.5 C190 47.12, 190 66.74, 190 82.5 M190 27.5 C190 45, 190 62.5, 190 82.5 M190 82.5 C190 100.83, 180.83 110, 162.5 110 M190 82.5 C190 100.83, 180.83 110, 162.5 110 M162.5 110 C117.68 110, 72.85 110, 27.5 110 M162.5 110 C121.54 110, 80.58 110, 27.5 110 M27.5 110 C9.17 110, 0 100.83, 0 82.5 M27.5 110 C9.17 110, 0 100.83, 0 82.5 M0 82.5 C0 64.47, 0 46.45, 0 27.5 M0 82.5 C0 62.37, 0 42.24, 0 27.5 M0 27.5 C0 9.17, 9.17 0, 27.5 0 M0 27.5 C0 9.17, 9.17 0, 27.5 0" stroke="#be123c" stroke-width="2" fill="none"/></g><g transform="translate(465.18359375 407) rotate(0 69.81640625 40)"><text x="69.81640625" y="14.3203125" font-family="Helvetica, Segoe UI Emoji" font-size="16px" fill="#be123c" text-anchor="middle" style="white-space: pre;" direction="ltr" dominant-baseline="alphabetic">Check Redis first</text><text x="69.81640625" y="34.3203125" font-family="Helvetica, Segoe UI Emoji" font-size="16px" fill="#be123c" text-anchor="middle" style="white-space: pre;" direction="ltr" dominant-baseline="alphabetic"/><text x="69.81640625" y="54.3203125" font-family="Helvetica, Segoe UI Emoji" font-size="16px" fill="#be123c" text-anchor="middle" style="white-space: pre;" direction="ltr" dominant-baseline="alphabetic">Use the cached link</text><text x="69.81640625" y="74.3203125" font-family="Helvetica, Segoe UI Emoji" font-size="16px" fill="#be123c" text-anchor="middle" style="white-space: pre;" direction="ltr" dominant-baseline="alphabetic">when it exists</text></g><g stroke-linecap="round" transform="translate(670 392) rotate(0 95 55)"><path d="M27.5 0 C60.45 0, 93.4 0, 162.5 0 C180.83 0, 190 9.17, 190 27.5 C190 40.98, 190 54.46, 190 82.5 C190 100.83, 180.83 110, 162.5 110 C114.91 110, 67.32 110, 27.5 110 C9.17 110, 0 100.83, 0 82.5 C0 71.14, 0 59.78, 0 27.5 C0 9.17, 9.17 0, 27.5 0" stroke="none" stroke-width="0" fill="#ccfbf1"/><path d="M27.5 0 C78.34 0, 129.19 0, 162.5 0 M27.5 0 C78.57 0, 129.63 0, 162.5 0 M162.5 0 C180.83 0, 190 9.17, 190 27.5 M162.5 0 C180.83 0, 190 9.17, 190 27.5 M190 27.5 C190 43.76, 190 60.01, 190 82.5 M190 27.5 C190 49.21, 190 70.92, 190 82.5 M190 82.5 C190 100.83, 180.83 110, 162.5 110 M190 82.5 C190 100.83, 180.83 110, 162.5 110 M162.5 110 C123.29 110, 84.08 110, 27.5 110 M162.5 110 C126.21 110, 89.92 110, 27.5 110 M27.5 110 C9.17 110, 0 100.83, 0 82.5 M27.5 110 C9.17 110, 0 100.83, 0 82.5 M0 82.5 C0 68.48, 0 54.46, 0 27.5 M0 82.5 C0 67.48, 0 52.45, 0 27.5 M0 27.5 C0 9.17, 9.17 0, 27.5 0 M0 27.5 C0 9.17, 9.17 0, 27.5 0" stroke="#0f766e" stroke-width="2" fill="none"/></g><g transform="translate(703.19921875 427) rotate(0 61.80078125 20)"><text x="61.80078125" y="14.3203125" font-family="Helvetica, Segoe UI Emoji" font-size="16px" fill="#0f766e" text-anchor="middle" style="white-space: pre;" direction="ltr" dominant-baseline="alphabetic">On a cache miss,</text><text x="61.80078125" y="34.3203125" font-family="Helvetica, Segoe UI Emoji" font-size="16px" fill="#0f766e" text-anchor="middle" style="white-space: pre;" direction="ltr" dominant-baseline="alphabetic">read Cassandra</text></g><g stroke-linecap="round" transform="translate(900 392) rotate(0 95 55)"><path d="M27.5 0 C69.09 0, 110.69 0, 162.5 0 C180.83 0, 190 9.17, 190 27.5 C190 47.78, 190 68.06, 190 82.5 C190 100.83, 180.83 110, 162.5 110 C116 110, 69.5 110, 27.5 110 C9.17 110, 0 100.83, 0 82.5 C0 63.8, 0 45.1, 0 27.5 C0 9.17, 9.17 0, 27.5 0" stroke="none" stroke-width="0" fill="#ffe4e6"/><path d="M27.5 0 C75.19 0, 122.88 0, 162.5 0 M27.5 0 C59.55 0, 91.61 0, 162.5 0 M162.5 0 C180.83 0, 190 9.17, 190 27.5 M162.5 0 C180.83 0, 190 9.17, 190 27.5 M190 27.5 C190 38.79, 190 50.07, 190 82.5 M190 27.5 C190 38.62, 190 49.74, 190 82.5 M190 82.5 C190 100.83, 180.83 110, 162.5 110 M190 82.5 C190 100.83, 180.83 110, 162.5 110 M162.5 110 C117.08 110, 71.66 110, 27.5 110 M162.5 110 C109.49 110, 56.48 110, 27.5 110 M27.5 110 C9.17 110, 0 100.83, 0 82.5 M27.5 110 C9.17 110, 0 100.83, 0 82.5 M0 82.5 C0 65.76, 0 49.02, 0 27.5 M0 82.5 C0 65.32, 0 48.14, 0 27.5 M0 27.5 C0 9.17, 9.17 0, 27.5 0 M0 27.5 C0 9.17, 9.17 0, 27.5 0" stroke="#be123c" stroke-width="2" fill="none"/></g><g transform="translate(936.74609375 427) rotate(0 58.25390625 20)"><text x="58.25390625" y="14.3203125" font-family="Helvetica, Segoe UI Emoji" font-size="16px" fill="#be123c" text-anchor="middle" style="white-space: pre;" direction="ltr" dominant-baseline="alphabetic">Cache the result</text><text x="58.25390625" y="34.3203125" font-family="Helvetica, Segoe UI Emoji" font-size="16px" fill="#be123c" text-anchor="middle" style="white-space: pre;" direction="ltr" dominant-baseline="alphabetic">for 24 hours</text></g><g stroke-linecap="round" transform="translate(1130 392) rotate(0 95 55)"><path d="M27.5 0 C72.53 0, 117.55 0, 162.5 0 C180.83 0, 190 9.17, 190 27.5 C190 38.69, 190 49.89, 190 82.5 C190 100.83, 180.83 110, 162.5 110 C113.71 110, 64.92 110, 27.5 110 C9.17 110, 0 100.83, 0 82.5 C0 71.29, 0 60.08, 0 27.5 C0 9.17, 9.17 0, 27.5 0" stroke="none" stroke-width="0" fill="#dcfce7"/><path d="M27.5 0 C70.78 0, 114.07 0, 162.5 0 M27.5 0 C79.21 0, 130.92 0, 162.5 0 M162.5 0 C180.83 0, 190 9.17, 190 27.5 M162.5 0 C180.83 0, 190 9.17, 190 27.5 M190 27.5 C190 47.35, 190 67.2, 190 82.5 M190 27.5 C190 39.31, 190 51.12, 190 82.5 M190 82.5 C190 100.83, 180.83 110, 162.5 110 M190 82.5 C190 100.83, 180.83 110, 162.5 110 M162.5 110 C117.84 110, 73.18 110, 27.5 110 M162.5 110 C133.12 110, 103.74 110, 27.5 110 M27.5 110 C9.17 110, 0 100.83, 0 82.5 M27.5 110 C9.17 110, 0 100.83, 0 82.5 M0 82.5 C0 67.09, 0 51.67, 0 27.5 M0 82.5 C0 66.44, 0 50.38, 0 27.5 M0 27.5 C0 9.17, 9.17 0, 27.5 0 M0 27.5 C0 9.17, 9.17 0, 27.5 0" stroke="#15803d" stroke-width="2" fill="none"/></g><g transform="translate(1172.97265625 407) rotate(0 52.02734375 40)"><text x="52.02734375" y="14.3203125" font-family="Helvetica, Segoe UI Emoji" font-size="16px" fill="#15803d" text-anchor="middle" style="white-space: pre;" direction="ltr" dominant-baseline="alphabetic">302 Found</text><text x="52.02734375" y="34.3203125" font-family="Helvetica, Segoe UI Emoji" font-size="16px" fill="#15803d" text-anchor="middle" style="white-space: pre;" direction="ltr" dominant-baseline="alphabetic"/><text x="52.02734375" y="54.3203125" font-family="Helvetica, Segoe UI Emoji" font-size="16px" fill="#15803d" text-anchor="middle" style="white-space: pre;" direction="ltr" dominant-baseline="alphabetic">Redirect to the</text><text x="52.02734375" y="74.3203125" font-family="Helvetica, Segoe UI Emoji" font-size="16px" fill="#15803d" text-anchor="middle" style="white-space: pre;" direction="ltr" dominant-baseline="alphabetic">original URL</text></g><g stroke-linecap="round"><g transform="translate(178.49991346814275 446.9093019231076) rotate(0 11.50008653185725 -0.44418564403784444)"><path d="M0 0 C8.66 -0.33, 17.32 -0.67, 23 -0.89 M0 0 C5.28 -0.2, 10.56 -0.41, 23 -0.89" stroke="#64748b" stroke-width="2" fill="none"/></g><g transform="translate(178.49991346814275 446.9093019231076) rotate(0 11.50008653185725 -0.44418564403784444)"><path d="M12.35 3.46 C16.36 1.82, 20.37 0.19, 23 -0.89 M12.35 3.46 C14.79 2.46, 17.24 1.46, 23 -0.89" stroke="#64748b" stroke-width="2" fill="none"/></g><g transform="translate(178.49991346814275 446.9093019231076) rotate(0 11.50008653185725 -0.44418564403784444)"><path d="M12.04 -4.4 C16.17 -3.08, 20.3 -1.76, 23 -0.89 M12.04 -4.4 C14.56 -3.6, 17.07 -2.79, 23 -0.89" stroke="#64748b" stroke-width="2" fill="none"/></g></g><mask/><g stroke-linecap="round"><g transform="translate(408.5 447) rotate(0 11.5 0)"><path d="M0 0 C9.14 0, 18.28 0, 23 0 M0 0 C6.94 0, 13.89 0, 23 0" stroke="#64748b" stroke-width="2" fill="none"/></g><g transform="translate(408.5 447) rotate(0 11.5 0)"><path d="M12.19 3.93 C16.49 2.37, 20.78 0.81, 23 0 M12.19 3.93 C15.46 2.75, 18.72 1.56, 23 0" stroke="#64748b" stroke-width="2" fill="none"/></g><g transform="translate(408.5 447) rotate(0 11.5 0)"><path d="M12.19 -3.93 C16.49 -2.37, 20.78 -0.81, 23 0 M12.19 -3.93 C15.46 -2.75, 18.72 -1.56, 23 0" stroke="#64748b" stroke-width="2" fill="none"/></g></g><mask/><g stroke-linecap="round"><g transform="translate(638.5 447) rotate(0 11.5 0)"><path d="M0 0 C7.71 0, 15.42 0, 23 0 M0 0 C8.5 0, 17 0, 23 0" stroke="#64748b" stroke-width="2" fill="none"/></g><g transform="translate(638.5 447) rotate(0 11.5 0)"><path d="M12.19 3.93 C15.81 2.62, 19.44 1.3, 23 0 M12.19 3.93 C16.19 2.48, 20.18 1.03, 23 0" stroke="#64748b" stroke-width="2" fill="none"/></g><g transform="translate(638.5 447) rotate(0 11.5 0)"><path d="M12.19 -3.93 C15.81 -2.62, 19.44 -1.3, 23 0 M12.19 -3.93 C16.19 -2.48, 20.18 -1.03, 23 0" stroke="#64748b" stroke-width="2" fill="none"/></g></g><mask/><g stroke-linecap="round"><g transform="translate(868.5 447) rotate(0 11.5 0)"><path d="M0 0 C8.62 0, 17.25 0, 23 0 M0 0 C7.21 0, 14.43 0, 23 0" stroke="#64748b" stroke-width="2" fill="none"/></g><g transform="translate(868.5 447) rotate(0 11.5 0)"><path d="M12.19 3.93 C16.25 2.46, 20.3 0.98, 23 0 M12.19 3.93 C15.58 2.7, 18.97 1.47, 23 0" stroke="#64748b" stroke-width="2" fill="none"/></g><g transform="translate(868.5 447) rotate(0 11.5 0)"><path d="M12.19 -3.93 C16.25 -2.46, 20.3 -0.98, 23 0 M12.19 -3.93 C15.58 -2.7, 18.97 -1.47, 23 0" stroke="#64748b" stroke-width="2" fill="none"/></g></g><mask/><g stroke-linecap="round"><g transform="translate(1098.5 447) rotate(0 11.5 0)"><path d="M0 0 C4.87 0, 9.74 0, 23 0 M0 0 C8.29 0, 16.58 0, 23 0" stroke="#64748b" stroke-width="2" fill="none"/></g><g transform="translate(1098.5 447) rotate(0 11.5 0)"><path d="M12.19 3.93 C14.48 3.1, 16.77 2.27, 23 0 M12.19 3.93 C16.09 2.52, 19.98 1.1, 23 0" stroke="#64748b" stroke-width="2" fill="none"/></g><g transform="translate(1098.5 447) rotate(0 11.5 0)"><path d="M12.19 -3.93 C14.48 -3.1, 16.77 -2.27, 23 0 M12.19 -3.93 C16.09 -2.52, 19.98 -1.1, 23 0" stroke="#64748b" stroke-width="2" fill="none"/></g></g><mask/><g transform="translate(440 322) rotate(0 99.6171875 10)"><text x="0" y="14.3203125" font-family="Helvetica, Segoe UI Emoji" font-size="16px" fill="#7c3aed" text-anchor="start" style="white-space: pre;" direction="ltr" dominant-baseline="alphabetic">Cache hit: return 302 Found</text></g><g stroke-linecap="round" transform="translate(670 557) rotate(0 165 29)"><path d="M14.5 0 C125.95 0, 237.4 0, 315.5 0 C325.17 0, 330 4.83, 330 14.5 C330 22.61, 330 30.71, 330 43.5 C330 53.17, 325.17 58, 315.5 58 C211.85 58, 108.2 58, 14.5 58 C4.83 58, 0 53.17, 0 43.5 C0 37.32, 0 31.13, 0 14.5 C0 4.83, 4.83 0, 14.5 0" stroke="none" stroke-width="0" fill="#fee2e2"/><path d="M14.5 0 C134.24 0, 253.98 0, 315.5 0 M14.5 0 C132.05 0, 249.6 0, 315.5 0 M315.5 0 C325.17 0, 330 4.83, 330 14.5 M315.5 0 C325.17 0, 330 4.83, 330 14.5 M330 14.5 C330 23.95, 330 33.41, 330 43.5 M330 14.5 C330 23.61, 330 32.71, 330 43.5 M330 43.5 C330 53.17, 325.17 58, 315.5 58 M330 43.5 C330 53.17, 325.17 58, 315.5 58 M315.5 58 C214.13 58, 112.76 58, 14.5 58 M315.5 58 C229.39 58, 143.28 58, 14.5 58 M14.5 58 C4.83 58, 0 53.17, 0 43.5 M14.5 58 C4.83 58, 0 53.17, 0 43.5 M0 43.5 C0 36.46, 0 29.42, 0 14.5 M0 43.5 C0 33.34, 0 23.18, 0 14.5 M0 14.5 C0 4.83, 4.83 0, 14.5 0 M0 14.5 C0 4.83, 4.83 0, 14.5 0" stroke="#b91c1c" stroke-width="2" fill="none"/></g><g transform="translate(690.46484375 576) rotate(0 144.53515625 10)"><text x="144.53515625" y="14.3203125" font-family="Helvetica, Segoe UI Emoji" font-size="16px" fill="#b91c1c" text-anchor="middle" style="white-space: pre;" direction="ltr" dominant-baseline="alphabetic">404 Not Found · The code does not exist</text></g><g stroke-linecap="round" transform="translate(210 254) rotate(0 210.0 23.0)"><path d="M14.5 0 C147.00 0, 294.00 0, 405.5 0 C415.17 0, 420 4.83, 420 14.5 C420 20.70, 420 27.60, 420 31.5 C420 41.17, 415.17 46, 405.5 46 C252.00 46, 126.00 46, 14.5 46 C4.83 46, 0 41.17, 0 31.5 C0 25.30, 0 18.40, 0 14.5 C0 4.83, 4.83 0, 14.5 0" stroke="none" stroke-width="0" fill="#ffedd5"/><path d="M14.5 0 C168.00 0, 315.00 0, 405.5 0 M14.5 0 C159.60 0, 302.40 0, 405.5 0 M405.5 0 C415.17 0, 420 4.83, 420 14.5 M405.5 0 C415.17 0, 420 4.83, 420 14.5 M420 14.5 C420 23.00, 420 28.52, 420 31.5 M420 14.5 C420 22.08, 420 29.90, 420 31.5 M420 31.5 C420 41.17, 415.17 46, 405.5 46 M420 31.5 C420 41.17, 415.17 46, 405.5 46 M405.5 46 C273.00 46, 134.40 46, 14.5 46 M405.5 46 C260.40 46, 147.00 46, 14.5 46 M14.5 46 C4.83 46, 0 41.17, 0 31.5 M14.5 46 C4.83 46, 0 41.17, 0 31.5 M0 31.5 C0 23.92, 0 19.32, 0 14.5 M0 31.5 C0 23.00, 0 20.70, 0 14.5 M0 14.5 C0 4.83, 4.83 0, 14.5 0 M0 14.5 C0 4.83, 4.83 0, 14.5 0" stroke="#b45309" stroke-width="2" fill="none"/></g><g transform="translate(249 267) rotate(0 171 10)"><text x="171" y="14.3203125" font-family="Helvetica, Segoe UI Emoji" font-size="16px" fill="#b45309" text-anchor="middle" style="white-space: pre;" direction="ltr" dominant-baseline="alphabetic">400 Bad Request · Not an absolute http(s) URL</text></g><g stroke-linecap="round" transform="translate(670 254) rotate(0 210.0 23.0)"><path d="M14.5 0 C147.00 0, 294.00 0, 405.5 0 C415.17 0, 420 4.83, 420 14.5 C420 20.70, 420 27.60, 420 31.5 C420 41.17, 415.17 46, 405.5 46 C252.00 46, 126.00 46, 14.5 46 C4.83 46, 0 41.17, 0 31.5 C0 25.30, 0 18.40, 0 14.5 C0 4.83, 4.83 0, 14.5 0" stroke="none" stroke-width="0" fill="#fee2e2"/><path d="M14.5 0 C168.00 0, 315.00 0, 405.5 0 M14.5 0 C159.60 0, 302.40 0, 405.5 0 M405.5 0 C415.17 0, 420 4.83, 420 14.5 M405.5 0 C415.17 0, 420 4.83, 420 14.5 M420 14.5 C420 23.00, 420 28.52, 420 31.5 M420 14.5 C420 22.08, 420 29.90, 420 31.5 M420 31.5 C420 41.17, 415.17 46, 405.5 46 M420 31.5 C420 41.17, 415.17 46, 405.5 46 M405.5 46 C273.00 46, 134.40 46, 14.5 46 M405.5 46 C260.40 46, 147.00 46, 14.5 46 M14.5 46 C4.83 46, 0 41.17, 0 31.5 M14.5 46 C4.83 46, 0 41.17, 0 31.5 M0 31.5 C0 23.92, 0 19.32, 0 14.5 M0 31.5 C0 23.00, 0 20.70, 0 14.5 M0 14.5 C0 4.83, 4.83 0, 14.5 0 M0 14.5 C0 4.83, 4.83 0, 14.5 0" stroke="#b91c1c" stroke-width="2" fill="none"/></g><g transform="translate(694 267) rotate(0 186 10)"><text x="186" y="14.3203125" font-family="Helvetica, Segoe UI Emoji" font-size="16px" fill="#b91c1c" text-anchor="middle" style="white-space: pre;" direction="ltr" dominant-baseline="alphabetic">503 Service Unavailable · 5 draws hit taken codes</text></g><g transform="translate(10 642) rotate(0 314.703125 10)"><text x="0" y="14.3203125" font-family="Helvetica, Segoe UI Emoji" font-size="16px" fill="#64748b" text-anchor="start" style="white-space: pre;" direction="ltr" dominant-baseline="alphabetic">nginx can send either request to any app copy. Every copy shares Redis and Cassandra.</text></g><g stroke-linecap="round"><g transform="translate(796.7960971792144 509.64510725586854) rotate(0 9.75066541071368 19.85489274413146)"><path d="M0 0 C5.4 10.99, 10.8 21.98, 19.5 39.71 M0 0 C7.78 15.84, 15.56 31.68, 19.5 39.71" stroke="#b91c1c" stroke-width="2" fill="none"/></g><g transform="translate(796.7960971792144 509.64510725586854) rotate(0 9.75066541071368 19.85489274413146)"><path d="M3.55 24.39 C7.96 28.63, 12.38 32.87, 19.5 39.71 M3.55 24.39 C9.91 30.5, 16.28 36.61, 19.5 39.71" stroke="#b91c1c" stroke-width="2" fill="none"/></g><g transform="translate(796.7960971792144 509.64510725586854) rotate(0 9.75066541071368 19.85489274413146)"><path d="M17.13 17.72 C17.79 23.8, 18.44 29.89, 19.5 39.71 M17.13 17.72 C18.08 26.49, 19.02 35.26, 19.5 39.71" stroke="#b91c1c" stroke-width="2" fill="none"/></g></g><mask/></svg>